<?xml version="1.0" standalone="no"?><!DOCTYPE svg PUBLIC "-//W3C//DTD SVG 1.1//EN" "http://www.w3.org/Graphics/SVG/1.1/DTD/svg11.dtd"><svg t="1587630212133" class="icon" viewBox="0 0 1024 1024" version="1.1" xmlns="http://www.w3.org/2000/svg" p-id="1161" xmlns:xlink="http://www.w3.org/1999/xlink" width="200" height="200"><defs><style type="text/css"></style></defs><path d="M267 901.5h40.9-16.2c-13.8-0.8-24.7-12.2-24.7-26.2v26.2zM674 900.5h40.9-16.2c-13.8-0.8-24.7-12.2-24.7-26.2v26.2z" fill="#ffffff" p-id="1162"></path><path d="M754.8 900.5h-40.9 16.2c13.8-0.8 24.7-12.2 24.7-26.2v26.2zM348.8 900.5h-40.9 16.2c13.8-0.8 24.7-12.2 24.7-26.2v26.2zM592.7 737.2h-40.9H568c13.8 0.8 24.7 12.2 24.7 26.2v-26.2zM836.6 573.7h40.9-16.2c-13.8 0.8-24.7 12.2-24.7 26.2v-26.2zM185.2 573.7h-40.9 16.2c13.8 0.8 24.7 12.2 24.7 26.2v-26.2zM429.6 737.2h40.9-16.2c-13.8 0.8-24.7 12.2-24.7 26.2v-26.2z" fill="#ffffff" p-id="1163"></path><path d="M953.7 573.3c11.4 0.8 23.1-3.1 31.9-11.9 16-16 16-41.9 0-57.9l-445.1-445c-8.2-8.2-18.9-12.1-29.6-12-10.7-0.2-21.4 3.8-29.6 12l-445.1 445c-1.6 1.6-3.1 3.4-4.4 5.2-5.3 6.9-8.5 15.5-8.5 24.9 0 22.6 18.3 40.9 40.9 40.9h120.9V914c0 37.6 30.5 68.1 68.1 68.1h0.5v0.1H362.4c34.7 0 63.3-26 67.5-59.5V737.5h162.3l0.4 122V914c0 37.6 30.5 68.1 68.1 68.1h0.5v0.1H769.4c34 0 62.2-25 67.3-57.6v-351" fill="#ffffff" p-id="1164"></path></svg>